<svg version="1.1" id="Layer_1" xmlns="http://www.w3.org/2000/svg" xmlns:xlink="http://www.w3.org/1999/xlink" x="0px" y="0px"
	 width="100%" viewBox="0 0 288 56" enable-background="new 0 0 288 56" xml:space="preserve">
<path fill="#FBFCFF" opacity="1.000000" stroke="none" 
	d="
M89.000000,1.000000 
	C155.602524,1.000000 222.205063,1.000000 288.903809,1.000000 
	C288.903809,19.584127 288.903809,38.168919 288.903809,57.000000 
	C222.979309,57.000000 156.958313,57.000000 90.655930,56.678215 
	C112.960487,51.182262 121.303352,27.274702 106.490303,10.420992 
	C101.773033,5.053865 95.347549,3.174499 89.000000,1.000000 
M171.966110,29.156124 
	C173.783188,37.991604 179.980392,41.944546 188.853714,39.928020 
	C195.853134,38.337357 199.836105,30.590221 197.633865,22.850071 
	C195.840271,16.546211 190.136627,13.184096 182.727371,14.063150 
	C175.606445,14.907995 172.030304,19.617437 171.966110,29.156124 
M123.317581,31.947418 
	C123.318787,37.227600 125.891617,39.792919 131.530289,40.136166 
	C138.217819,40.543259 142.763901,37.941811 142.512177,32.966763 
	C142.387604,30.504658 140.258301,27.813793 138.362762,25.889666 
	C137.135834,24.644238 134.600845,24.789219 132.822815,23.949474 
	C131.620163,23.381474 130.598923,22.274971 129.759918,21.203161 
	C129.557526,20.944616 130.399628,19.272545 130.758896,19.273426 
	C132.310867,19.277229 133.936386,19.447996 135.395111,19.958252 
	C137.375351,20.650923 139.227692,21.709185 142.020508,23.029240 
	C140.469543,15.666836 136.226913,12.932910 130.342239,14.185918 
	C126.328743,15.040502 123.770576,17.471836 123.575790,21.695707 
	C123.393913,25.639687 125.852005,27.724566 129.371902,28.776808 
	C131.120331,29.299486 133.019684,29.511135 134.595718,30.345318 
	C135.568298,30.860104 136.060501,32.282505 136.768372,33.297432 
	C135.602295,34.019348 134.455215,35.275913 133.264969,35.318233 
	C131.982361,35.363842 130.672943,34.239758 129.350571,33.684658 
	C127.566605,32.935787 125.759117,32.242966 123.317581,31.947418 
M162.505615,14.557396 
	C160.700180,14.371798 158.885468,13.965594 157.091034,14.041205 
	C151.281860,14.285985 146.612473,18.216816 145.279800,23.763853 
	C143.826523,29.812901 146.387344,35.873192 151.598938,38.718365 
	C159.100739,42.813831 168.592438,38.976036 169.556961,30.169701 
	C166.905731,31.379782 164.660950,32.016159 162.883224,33.299496 
	C159.556976,35.700691 155.801956,35.700211 152.997421,32.838234 
	C150.137726,29.919973 150.054916,24.531149 152.822754,21.471708 
	C155.477966,18.536757 159.184464,18.481573 162.709259,20.808298 
	C164.636292,22.080341 167.032959,22.640961 169.217834,23.522402 
	C169.667099,22.809586 170.116364,22.096769 170.565643,21.383953 
	C168.125549,19.206812 165.685471,17.029673 162.505615,14.557396 
M229.339005,28.109463 
	C231.350372,28.532387 233.361725,28.955313 235.742813,29.455978 
	C235.742813,27.309998 235.742813,25.934753 235.742813,24.677956 
	C235.138474,24.421686 234.851913,24.262154 234.544769,24.175962 
	C232.117676,23.494846 227.549225,22.648844 227.588135,22.184006 
	C227.969040,17.632187 231.891357,20.667624 234.042969,19.590395 
	C235.116440,19.052952 236.522491,17.736141 236.484467,16.825895 
	C236.445984,15.904711 234.875214,14.387450 233.862534,14.288451 
	C230.573959,13.966963 227.201813,13.924899 223.933151,14.338592 
	C222.998199,14.456923 221.489288,17.388494 221.620819,17.507479 
	C224.683151,20.277472 221.886383,23.070101 221.842026,25.803280 
	C221.767441,30.396751 221.821609,34.992313 221.821609,40.012695 
	C225.967300,40.012695 229.777954,40.211979 233.544037,39.890003 
	C234.658951,39.794689 235.648254,38.230312 236.695114,37.339115 
	C235.565491,36.530670 234.530777,35.290092 233.283752,35.016258 
	C231.466614,34.617229 229.496704,34.913780 226.481644,34.913780 
	C227.371445,31.836819 227.951126,29.832212 229.339005,28.109463 
M201.117279,24.533524 
	C201.117279,29.767626 201.117279,35.001728 201.117279,40.464466 
	C205.705551,38.674049 205.705551,38.674049 207.720108,31.182346 
	C209.491821,30.989183 211.334015,30.973541 213.081238,30.558279 
	C216.450577,29.757496 218.612091,27.729321 218.997467,24.076342 
	C219.659637,17.799700 216.543793,14.310233 209.580551,14.199703 
	C199.126785,14.033768 201.351929,13.542013 201.119690,22.057293 
	C201.106110,22.555216 201.117706,23.053825 201.117279,24.533524 
z"/>
<path fill="#FCFDFF" opacity="1.000000" stroke="none" 
	d="
M82.000000,57.000000 
	C55.054035,57.000000 28.108070,57.000000 1.081052,57.000000 
	C1.081052,38.425003 1.081052,19.849598 1.081052,1.000000 
	C28.020277,1.000000 55.041481,1.000000 82.329926,1.316307 
	C60.071007,6.893077 50.968472,30.174700 65.541046,46.820152 
	C69.603264,51.460197 76.437454,53.673450 82.000000,57.000000 
z"/>
<path fill="#9864FF" opacity="1.000000" stroke="none" 
	d="
M82.444168,57.000000 
	C76.437454,53.673450 69.603264,51.460197 65.541046,46.820152 
	C50.968472,30.174700 60.071007,6.893077 82.798584,1.316307 
	C84.714355,1.000000 86.428719,1.000000 88.571533,1.000000 
	C95.347549,3.174499 101.773033,5.053865 106.490303,10.420992 
	C121.303352,27.274702 112.960487,51.182262 90.187271,56.678215 
	C87.629440,57.000000 85.258888,57.000000 82.444168,57.000000 
M85.856476,20.325764 
	C92.775986,18.612219 99.695488,16.898674 106.614990,15.185129 
	C106.730705,14.601648 106.846413,14.018167 106.962128,13.434687 
	C102.644196,10.445796 98.326263,7.456905 93.583107,4.173668 
	C90.327950,10.163959 87.658020,15.077286 84.648178,20.142427 
	C84.697357,20.303776 84.746536,20.465124 84.795708,20.626471 
	C84.881538,20.433733 84.967369,20.240993 85.856476,20.325764 
M69.692314,10.139431 
	C68.539040,11.333814 67.242897,12.421360 66.256409,13.740475 
	C61.111824,20.619713 61.388527,21.788296 68.857704,25.967533 
	C71.714714,27.566118 74.559204,29.187080 78.255730,31.276142 
	C76.287834,23.825134 74.609604,17.270611 72.742012,10.770497 
	C72.588493,10.236204 71.147629,10.071791 69.692314,10.139431 
M70.754807,29.749565 
	C67.826004,28.059479 64.897202,26.369390 61.968403,24.679302 
	C61.455460,25.005421 60.942513,25.331541 60.429569,25.657660 
	C61.424862,30.785824 62.420151,35.913986 63.477985,41.364399 
	C70.120392,39.544132 75.532379,38.061047 82.076950,36.267590 
	C77.703575,33.723141 74.561066,31.894808 70.754807,29.749565 
M96.707382,35.813858 
	C97.911377,40.343029 99.115364,44.872204 100.759804,51.058277 
	C104.211617,46.273746 106.924461,42.798435 109.247749,39.079746 
	C109.784546,38.220535 109.456955,35.816093 108.728790,35.337593 
	C104.520607,32.572254 100.073112,30.171085 94.583740,26.997393 
	C95.406555,30.622974 95.909019,32.836975 96.707382,35.813858 
M109.216560,32.730015 
	C109.849907,32.423233 111.006874,32.161613 111.037811,31.802874 
	C111.480385,26.671455 111.474998,21.593117 108.056046,17.077650 
	C102.487312,18.593851 97.153290,20.046146 90.379929,21.890329 
	C97.338989,25.910984 102.921707,29.136442 109.216560,32.730015 
M85.516174,3.954844 
	C82.621559,4.567230 79.647980,4.952934 76.876373,5.918442 
	C75.942123,6.243898 74.791420,8.190764 74.986740,9.139973 
	C76.002625,14.076862 77.421066,18.930918 79.029434,25.074713 
	C83.376068,17.540167 87.019669,11.224286 90.965775,4.384020 
	C88.660667,4.156280 87.524055,4.043984 85.516174,3.954844 
M83.956810,49.568157 
	C83.321716,50.834194 82.686630,52.100231 81.333374,54.797916 
	C86.863480,53.896973 91.178596,53.357876 95.394577,52.387932 
	C96.405281,52.155407 97.952255,50.298080 97.778610,49.514786 
	C96.645065,44.401501 95.105789,39.378159 93.421883,33.329323 
	C89.971008,39.252159 87.154526,44.086182 83.956810,49.568157 
M66.840172,42.967651 
	C66.919106,43.781353 66.682014,44.992157 67.126808,45.346134 
	C70.791870,48.262882 74.583473,51.020626 78.741875,54.129452 
	C82.054596,48.234718 84.697647,43.531609 87.340698,38.828499 
	C87.080116,38.440006 86.819534,38.051514 86.558952,37.663025 
	C80.220856,39.337601 73.882751,41.012180 66.840172,42.967651 
M92.007050,30.995436 
	C92.917465,26.957853 91.492867,24.010303 87.444695,23.121027 
	C84.200943,22.408461 81.031471,23.944796 80.647316,27.234072 
	C80.388870,29.446983 81.723839,32.740749 83.473129,34.095196 
	C86.514877,36.450375 89.695175,35.256126 92.007050,30.995436 
z"/>
<path fill="#915AFF" opacity="1.000000" stroke="none" 
	d="
M171.941956,28.727242 
	C172.030304,19.617437 175.606445,14.907995 182.727371,14.063150 
	C190.136627,13.184096 195.840271,16.546211 197.633865,22.850071 
	C199.836105,30.590221 195.853134,38.337357 188.853714,39.928020 
	C179.980392,41.944546 173.783188,37.991604 171.941956,28.727242 
M192.085266,24.972229 
	C189.824966,19.983337 186.469986,18.097456 182.553467,19.614254 
	C178.524979,21.174414 176.676315,25.372557 178.007675,29.937254 
	C179.099487,33.680649 182.614899,35.850632 186.546555,34.941338 
	C191.404785,33.817749 192.472610,30.182774 192.085266,24.972229 
z"/>
<path fill="#915AFF" opacity="1.000000" stroke="none" 
	d="
M123.639648,31.736755 
	C125.759117,32.242966 127.566605,32.935787 129.350571,33.684658 
	C130.672943,34.239758 131.982361,35.363842 133.264969,35.318233 
	C134.455215,35.275913 135.602295,34.019348 136.768372,33.297432 
	C136.060501,32.282505 135.568298,30.860104 134.595718,30.345318 
	C133.019684,29.511135 131.120331,29.299486 129.371902,28.776808 
	C125.852005,27.724566 123.393913,25.639687 123.575790,21.695707 
	C123.770576,17.471836 126.328743,15.040502 130.342239,14.185918 
	C136.226913,12.932910 140.469543,15.666836 142.020508,23.029240 
	C139.227692,21.709185 137.375351,20.650923 135.395111,19.958252 
	C133.936386,19.447996 132.310867,19.277229 130.758896,19.273426 
	C130.399628,19.272545 129.557526,20.944616 129.759918,21.203161 
	C130.598923,22.274971 131.620163,23.381474 132.822815,23.949474 
	C134.600845,24.789219 137.135834,24.644238 138.362762,25.889666 
	C140.258301,27.813793 142.387604,30.504658 142.512177,32.966763 
	C142.763901,37.941811 138.217819,40.543259 131.530289,40.136166 
	C125.891617,39.792919 123.318787,37.227600 123.639648,31.736755 
z"/>
<path fill="#915AFF" opacity="1.000000" stroke="none" 
	d="
M162.875488,14.704965 
	C165.685471,17.029673 168.125549,19.206812 170.565643,21.383953 
	C170.116364,22.096769 169.667099,22.809586 169.217834,23.522402 
	C167.032959,22.640961 164.636292,22.080341 162.709259,20.808298 
	C159.184464,18.481573 155.477966,18.536757 152.822754,21.471708 
	C150.054916,24.531149 150.137726,29.919973 152.997421,32.838234 
	C155.801956,35.700211 159.556976,35.700691 162.883224,33.299496 
	C164.660950,32.016159 166.905731,31.379782 169.556961,30.169701 
	C168.592438,38.976036 159.100739,42.813831 151.598938,38.718365 
	C146.387344,35.873192 143.826523,29.812901 145.279800,23.763853 
	C146.612473,18.216816 151.281860,14.285985 157.091034,14.041205 
	C158.885468,13.965594 160.700180,14.371798 162.875488,14.704965 
z"/>
<path fill="#915AFF" opacity="1.000000" stroke="none" 
	d="
M228.934906,27.968534 
	C227.951126,29.832212 227.371445,31.836819 226.481644,34.913780 
	C229.496704,34.913780 231.466614,34.617229 233.283752,35.016258 
	C234.530777,35.290092 235.565491,36.530670 236.695114,37.339119 
	C235.648254,38.230312 234.658951,39.794689 233.544037,39.890003 
	C229.777954,40.211979 225.967300,40.012695 221.821609,40.012695 
	C221.821609,34.992313 221.767441,30.396751 221.842026,25.803280 
	C221.886383,23.070101 224.683151,20.277472 221.620819,17.507479 
	C221.489288,17.388494 222.998199,14.456923 223.933151,14.338592 
	C227.201813,13.924899 230.573959,13.966963 233.862534,14.288451 
	C234.875214,14.387450 236.445984,15.904711 236.484467,16.825895 
	C236.522491,17.736141 235.116440,19.052952 234.042969,19.590395 
	C231.891357,20.667624 227.969040,17.632187 227.588135,22.184006 
	C227.549225,22.648844 232.117676,23.494846 234.544769,24.175962 
	C234.851913,24.262154 235.138474,24.421686 235.742813,24.677956 
	C235.742813,25.934753 235.742813,27.309998 235.742813,29.455978 
	C233.361725,28.955313 231.350372,28.532387 228.934906,27.968534 
z"/>
<path fill="#925CFF" opacity="1.000000" stroke="none" 
	d="
M201.117432,24.042820 
	C201.117706,23.053825 201.106110,22.555216 201.119690,22.057293 
	C201.351929,13.542013 199.126785,14.033768 209.580551,14.199703 
	C216.543793,14.310233 219.659637,17.799700 218.997467,24.076342 
	C218.612091,27.729321 216.450577,29.757496 213.081238,30.558279 
	C211.334015,30.973541 209.491821,30.989183 207.720108,31.182346 
	C205.705551,38.674049 205.705551,38.674049 201.117279,40.464466 
	C201.117279,35.001728 201.117279,29.767626 201.117432,24.042820 
M209.353790,25.977684 
	C210.600677,24.627789 211.847565,23.277891 213.094452,21.927988 
	C211.474579,20.795706 209.854691,19.663422 208.234818,18.531137 
	C207.670807,18.955561 207.106796,19.379982 206.542786,19.804405 
	C207.197510,21.852730 207.852219,23.901056 209.353790,25.977684 
z"/>
<path fill="#F7F6FF" opacity="1.000000" stroke="none" 
	d="
M69.998619,9.937473 
	C71.147629,10.071791 72.588493,10.236204 72.742012,10.770497 
	C74.609604,17.270611 76.287834,23.825134 78.255730,31.276142 
	C74.559204,29.187080 71.714714,27.566118 68.857704,25.967533 
	C61.388527,21.788296 61.111824,20.619713 66.256409,13.740475 
	C67.242897,12.421360 68.539040,11.333814 69.998619,9.937473 
z"/>
<path fill="#F8F7FF" opacity="1.000000" stroke="none" 
	d="
M84.988091,19.990614 
	C87.658020,15.077286 90.327950,10.163959 93.583107,4.173668 
	C98.326263,7.456905 102.644196,10.445796 106.962128,13.434687 
	C106.846413,14.018167 106.730705,14.601648 106.614990,15.185129 
	C99.695488,16.898674 92.775986,18.612219 85.438385,20.172245 
	C85.020302,20.018724 84.988091,19.990614 84.988091,19.990614 
z"/>
<path fill="#F8F7FF" opacity="1.000000" stroke="none" 
	d="
M71.086678,29.908020 
	C74.561066,31.894808 77.703575,33.723141 82.076950,36.267590 
	C75.532379,38.061047 70.120392,39.544132 63.477985,41.364399 
	C62.420151,35.913986 61.424862,30.785824 60.429569,25.657660 
	C60.942513,25.331541 61.455460,25.005421 61.968403,24.679302 
	C64.897202,26.369390 67.826004,28.059479 71.086678,29.908020 
z"/>
<path fill="#F8F7FF" opacity="1.000000" stroke="none" 
	d="
M96.559433,35.432419 
	C95.909019,32.836975 95.406555,30.622974 94.583740,26.997393 
	C100.073112,30.171085 104.520607,32.572254 108.728790,35.337593 
	C109.456955,35.816093 109.784546,38.220535 109.247749,39.079746 
	C106.924461,42.798435 104.211617,46.273746 100.759804,51.058277 
	C99.115364,44.872204 97.911377,40.343029 96.559433,35.432419 
z"/>
<path fill="#F8F7FF" opacity="1.000000" stroke="none" 
	d="
M108.860489,32.545959 
	C102.921707,29.136442 97.338989,25.910984 90.379929,21.890329 
	C97.153290,20.046146 102.487312,18.593851 108.056046,17.077650 
	C111.474998,21.593117 111.480385,26.671455 111.037811,31.802874 
	C111.006874,32.161613 109.849907,32.423233 108.860489,32.545959 
z"/>
<path fill="#F8F8FF" opacity="1.000000" stroke="none" 
	d="
M85.951813,3.943267 
	C87.524055,4.043984 88.660667,4.156280 90.965775,4.384020 
	C87.019669,11.224286 83.376068,17.540167 79.029434,25.074713 
	C77.421066,18.930918 76.002625,14.076862 74.986740,9.139973 
	C74.791420,8.190764 75.942123,6.243898 76.876373,5.918442 
	C79.647980,4.952934 82.621559,4.567230 85.951813,3.943267 
z"/>
<path fill="#F9F8FF" opacity="1.000000" stroke="none" 
	d="
M84.147430,49.244183 
	C87.154526,44.086182 89.971008,39.252159 93.421883,33.329323 
	C95.105789,39.378159 96.645065,44.401501 97.778610,49.514786 
	C97.952255,50.298080 96.405281,52.155407 95.394577,52.387932 
	C91.178596,53.357876 86.863480,53.896973 81.333374,54.797916 
	C82.686630,52.100231 83.321716,50.834194 84.147430,49.244183 
z"/>
<path fill="#F8F7FF" opacity="1.000000" stroke="none" 
	d="
M67.192413,42.827206 
	C73.882751,41.012180 80.220856,39.337601 86.558952,37.663025 
	C86.819534,38.051514 87.080116,38.440006 87.340698,38.828499 
	C84.697647,43.531609 82.054596,48.234718 78.741875,54.129452 
	C74.583473,51.020626 70.791870,48.262882 67.126808,45.346134 
	C66.682014,44.992157 66.919106,43.781353 67.192413,42.827206 
z"/>
<path fill="#F7F5FF" opacity="1.000000" stroke="none" 
	d="
M91.838554,31.375597 
	C89.695175,35.256126 86.514877,36.450375 83.473129,34.095196 
	C81.723839,32.740749 80.388870,29.446983 80.647316,27.234072 
	C81.031471,23.944796 84.200943,22.408461 87.444695,23.121027 
	C91.492867,24.010303 92.917465,26.957853 91.838554,31.375597 
z"/>
<path fill="#F8F7FF" opacity="1.000000" stroke="none" 
	d="
M85.036743,20.033489 
	C84.967369,20.240993 84.881538,20.433733 84.795715,20.626472 
	C84.746536,20.465124 84.697357,20.303776 84.818130,20.066521 
	C84.988091,19.990614 85.020302,20.018724 85.036743,20.033489 
z"/>
<path fill="#F9F9FF" opacity="1.000000" stroke="none" 
	d="
M192.134979,25.383913 
	C192.472610,30.182774 191.404785,33.817749 186.546555,34.941338 
	C182.614899,35.850632 179.099487,33.680649 178.007675,29.937254 
	C176.676315,25.372557 178.524979,21.174414 182.553467,19.614254 
	C186.469986,18.097456 189.824966,19.983337 192.134979,25.383913 
z"/>
<path fill="#F6F4FF" opacity="1.000000" stroke="none" 
	d="
M208.930359,25.963531 
	C207.852219,23.901056 207.197510,21.852730 206.542786,19.804405 
	C207.106796,19.379982 207.670807,18.955561 208.234818,18.531137 
	C209.854691,19.663422 211.474579,20.795706 213.094452,21.927990 
	C211.847565,23.277891 210.600677,24.627789 208.930359,25.963531 
z"/>
</svg>